<svg width="32" height="33" viewBox="0 0 32 33" fill="none" xmlns="http://www.w3.org/2000/svg">
<circle cx="16" cy="16.5" r="16" fill="url(#paint0_linear_1_504)" fill-opacity="0.11"/>
<circle cx="16" cy="16.5" r="15.5" stroke="white" stroke-opacity="0.09"/>
<g clip-path="url(#clip0_1_504)">
<path fill-rule="evenodd" clip-rule="evenodd" d="M22.9999 20.559C22.9999 20.8543 22.8877 21.1497 22.6634 21.3741L21.2366 22.8009C20.8993 23.1381 20.5166 23.3448 20.1058 23.4396C19.6738 23.5393 19.2164 23.5124 18.7531 23.3817C17.7831 23.108 16.752 22.6388 15.7236 21.9935C14.7372 21.3746 13.7537 20.5945 12.8298 19.6706C11.9059 18.7467 11.1258 17.7632 10.5068 16.7768C9.86152 15.7483 9.39239 14.7173 9.1187 13.7473C8.98797 13.284 8.96115 12.8266 9.06082 12.3945C9.15559 11.9837 9.36225 11.601 9.69951 11.2638L11.1263 9.837C11.3507 9.61261 11.6461 9.50042 11.9413 9.50042C12.2366 9.50042 12.532 9.61264 12.7564 9.837L14.7168 11.7974C14.9412 12.0218 15.0534 12.3172 15.0534 12.6124C15.0534 12.9077 14.9411 13.2032 14.7168 13.4275L13.6882 14.4561C13.4807 14.6635 13.377 14.9374 13.377 15.2114C13.377 15.4855 13.4807 15.7593 13.6882 15.9668L16.5336 18.8121C16.741 19.0196 17.0149 19.1234 17.2889 19.1234C17.563 19.1234 17.8368 19.0196 18.0443 18.8121L19.0729 17.7836C19.2973 17.5592 19.5927 17.447 19.8879 17.447C20.1832 17.447 20.4786 17.5592 20.703 17.7836L22.6634 19.744C22.8877 19.9683 22.9999 20.2638 22.9999 20.559Z" fill="white"/>
</g>
<defs>
<linearGradient id="paint0_linear_1_504" x1="16" y1="0.5" x2="16" y2="32.5" gradientUnits="userSpaceOnUse">
<stop stop-color="white" stop-opacity="0"/>
<stop offset="1" stop-color="white"/>
</linearGradient>
<clipPath id="clip0_1_504">
<rect width="14" height="14" fill="white" transform="translate(9 9.5)"/>
</clipPath>
</defs>
</svg>
